ffmpeg started on 2026-01-20 at 14:19:14
Report written to "D:\Convert\FFMetrics\reports\psnr_report-6.txt"
Log level: 32
Command line:
ffmpeg -hide_banner -nostdin -r 24000/1001 -i "F:\\Convert\\files\\[DC] Make Heroine ga Oosugiru - 07_Telegram_HEVC(209).mkv" -r 24000/1001 -i "F:\\Convert\\files\\[DC] Make Heroine ga Oosugiru - 07_Telegram.mp4" -lavfi "[0:v]settb=AVTB,setpts=PTS-STARTPTS,format=pix_fmts=yuv420p10le,fps=24000/1001,scale=1920:1080:flags=lanczos:param0=3:out_range=limited:out_color_matrix=bt709:out_chroma_loc=left,setsar=1/1,setdar=(1920/1080)*(1/1),colorspace=format=yuv420p10:range=tv:primaries=bt709:trc=bt709:space=bt709:fast=0[main];[1:v]settb=AVTB,setpts=PTS-STARTPTS,format=pix_fmts=yuv420p,fps=24000/1001,scale=1920:1080:flags=lanczos:param0=3:out_range=limited:out_color_matrix=bt709:out_chroma_loc=left,setsar=1.000,setdar=1.778,colorspace=format=yuv420p:range=tv:primaries=bt709:trc=bt709:space=bt709:fast=0[ref];[main][ref]psnr=eof_action=endall:stats_file='D\\:/Convert/FFMetrics/logs/psnr_logfile-6.txt'" -f null -
Input #0, matroska,webm, from 'F:\Convert\files\[DC] Make Heroine ga Oosugiru - 07_Telegram_HEVC(209).mkv':
  Metadata:
    COMPATIBLE_BRANDS: isomiso2avc1mp41
    MAJOR_BRAND     : isom
    MINOR_VERSION   : 512
    ENCODER         : Lavf61.7.100
  Duration: 00:24:06.79, start: -0.021000, bitrate: 894 kb/s
  Stream #0:0: Video: hevc (Main 10), yuv420p10le(tv, bt709, progressive), 1920x1080 [SAR 1:1 DAR 16:9], 23.98 fps, 23.98 tbr, 1k tbn (default)
      Metadata:
        HANDLER_NAME    : VideoHandler
        VENDOR_ID       : [0][0][0][0]
        ENCODER         : Lavc61.19.100 libx265
        BPS             : 697268
        DURATION        : 00:24:06.569708333
        NUMBER_OF_FRAMES: 34683
        NUMBER_OF_BYTES : 126080960
        _STATISTICS_WRITING_APP: mkvpropedit v94.0 ('Initiate') 64-bit
        _STATISTICS_WRITING_DATE_UTC: 2026-01-20 09:48:07
        _STATISTICS_TAGS: BPS DURATION NUMBER_OF_FRAMES NUMBER_OF_BYTES
  Stream #0:1: Audio: aac (LC), 48000 Hz, stereo, fltp (default)
      Metadata:
        HANDLER_NAME    : SoundHandler
        VENDOR_ID       : [0][0][0][0]
        ENCODER         : Lavc61.19.100 aac
        BPS             : 193194
        DURATION        : 00:24:06.784000000
        NUMBER_OF_FRAMES: 67819
        NUMBER_OF_BYTES : 34938755
        _STATISTICS_WRITING_APP: mkvpropedit v94.0 ('Initiate') 64-bit
        _STATISTICS_WRITING_DATE_UTC: 2026-01-20 09:48:07
        _STATISTICS_TAGS: BPS DURATION NUMBER_OF_FRAMES NUMBER_OF_BYTES
Input #1, mov,mp4,m4a,3gp,3g2,mj2, from 'F:\Convert\files\[DC] Make Heroine ga Oosugiru - 07_Telegram.mp4':
  Metadata:
    major_brand     : isom
    minor_version   : 512
    compatible_brands: isomiso2avc1mp41
    encoder         : Lavf60.16.100
  Duration: 00:24:06.74, start: 0.000000, bitrate: 3764 kb/s
  Stream #1:0[0x1](und): Video: h264 (High) (avc1 / 0x31637661), yuv420p(tv, bt709, progressive), 1920x1080 [SAR 1:1 DAR 16:9], 3616 kb/s, 23.98 fps, 23.98 tbr, 24k tbn (default)
      Metadata:
        handler_name    : VideoHandler
        vendor_id       : [0][0][0][0]
        encoder         : Lavc60.31.102 h264_qsv
  Stream #1:1[0x2](und): Audio: aac (HE-AACv2) (mp4a / 0x6134706D), 48000 Hz, stereo, fltp, 144 kb/s (default)
      Metadata:
        handler_name    : SoundHandler
        vendor_id       : [0][0][0][0]
Stream mapping:
  Stream #0:0 (hevc) -> settb:default
  Stream #1:0 (h264) -> settb:default
  psnr:default -> Stream #0:0 (wrapped_avframe)
  Stream #0:1 -> #0:1 (aac (native) -> pcm_s16le (native))
Output #0, null, to 'pipe:':
  Metadata:
    COMPATIBLE_BRANDS: isomiso2avc1mp41
    MAJOR_BRAND     : isom
    MINOR_VERSION   : 512
    encoder         : Lavf61.7.100
  Stream #0:0: Video: wrapped_avframe, yuv420p10le(tv, bt709, progressive), 1920x1080 [SAR 1:1 DAR 16:9], q=2-31, 200 kb/s, 23.98 fps, 23.98 tbn
      Metadata:
        encoder         : Lavc61.19.100 wrapped_avframe
  Stream #0:1: Audio: pcm_s16le, 48000 Hz, stereo, s16, 1536 kb/s (default)
      Metadata:
        HANDLER_NAME    : SoundHandler
        VENDOR_ID       : [0][0][0][0]
        _STATISTICS_TAGS: BPS DURATION NUMBER_OF_FRAMES NUMBER_OF_BYTES
        BPS             : 193194
        DURATION        : 00:24:06.784000000
        NUMBER_OF_FRAMES: 67819
        NUMBER_OF_BYTES : 34938755
        _STATISTICS_WRITING_APP: mkvpropedit v94.0 ('Initiate') 64-bit
        _STATISTICS_WRITING_DATE_UTC: 2026-01-20 09:48:07
        encoder         : Lavc61.19.100 pcm_s16le
frame=  143 fps=0.0 q=-0.0 size=N/A time=00:00:05.96 bitrate=N/A speed=11.5x    frame=  350 fps=335 q=-0.0 size=N/A time=00:00:14.59 bitrate=N/A speed=  14x    frame=  556 fps=358 q=-0.0 size=N/A time=00:00:23.18 bitrate=N/A speed=14.9x    frame=  766 fps=371 q=-0.0 size=N/A time=00:00:31.94 bitrate=N/A speed=15.5x    frame=  937 fps=364 q=-0.0 size=N/A time=00:00:39.08 bitrate=N/A speed=15.2x    frame= 1102 fps=355 q=-0.0 size=N/A time=00:00:45.96 bitrate=N/A speed=14.8x    frame= 1271 fps=351 q=-0.0 size=N/A time=00:00:53.01 bitrate=N/A speed=14.7x    frame= 1445 fps=350 q=-0.0 size=N/A time=00:01:00.26 bitrate=N/A speed=14.6x    frame= 1596 fps=344 q=-0.0 size=N/A time=00:01:06.56 bitrate=N/A speed=14.3x    frame= 1751 fps=340 q=-0.0 size=N/A time=00:01:13.03 bitrate=N/A speed=14.2x    frame= 1915 fps=337 q=-0.0 size=N/A time=00:01:19.87 bitrate=N/A speed=14.1x    frame= 2067 fps=334 q=-0.0 size=N/A time=00:01:26.21 bitrate=N/A speed=13.9x    frame= 2209 fps=329 q=-0.0 size=N/A time=00:01:32.13 bitrate=N/A speed=13.7x    frame= 2365 fps=328 q=-0.0 size=N/A time=00:01:38.64 bitrate=N/A speed=13.7x    frame= 2507 fps=324 q=-0.0 size=N/A time=00:01:44.56 bitrate=N/A speed=13.5x    frame= 2674 fps=324 q=-0.0 size=N/A time=00:01:51.52 bitrate=N/A speed=13.5x    frame= 2849 fps=325 q=-0.0 size=N/A time=00:01:58.82 bitrate=N/A speed=13.6x    frame= 3046 fps=328 q=-0.0 size=N/A time=00:02:07.04 bitrate=N/A speed=13.7x    frame= 3242 fps=331 q=-0.0 size=N/A time=00:02:15.21 bitrate=N/A speed=13.8x    frame= 3456 fps=335 q=-0.0 size=N/A time=00:02:24.14 bitrate=N/A speed=  14x    frame= 3665 fps=338 q=-0.0 size=N/A time=00:02:32.86 bitrate=N/A speed=14.1x    frame= 3876 fps=342 q=-0.0 size=N/A time=00:02:41.66 bitrate=N/A speed=14.3x    frame= 4095 fps=345 q=-0.0 size=N/A time=00:02:50.79 bitrate=N/A speed=14.4x    frame= 4302 fps=347 q=-0.0 size=N/A time=00:02:59.42 bitrate=N/A speed=14.5x    frame= 4500 fps=349 q=-0.0 size=N/A time=00:03:07.68 bitrate=N/A speed=14.6x    frame= 4719 fps=352 q=-0.0 size=N/A time=00:03:16.82 bitrate=N/A speed=14.7x    frame= 4920 fps=353 q=-0.0 size=N/A time=00:03:25.20 bitrate=N/A speed=14.7x    frame= 5127 fps=355 q=-0.0 size=N/A time=00:03:33.83 bitrate=N/A speed=14.8x    frame= 5328 fps=356 q=-0.0 size=N/A time=00:03:42.22 bitrate=N/A speed=14.9x    frame= 5544 fps=358 q=-0.0 size=N/A time=00:03:51.23 bitrate=N/A speed=14.9x    frame= 5742 fps=359 q=-0.0 size=N/A time=00:03:59.48 bitrate=N/A speed=  15x    frame= 5950 fps=361 q=-0.0 size=N/A time=00:04:08.16 bitrate=N/A speed=  15x    frame= 6160 fps=362 q=-0.0 size=N/A time=00:04:16.92 bitrate=N/A speed=15.1x    frame= 6371 fps=363 q=-0.0 size=N/A time=00:04:25.72 bitrate=N/A speed=15.1x    frame= 6579 fps=364 q=-0.0 size=N/A time=00:04:34.39 bitrate=N/A speed=15.2x    frame= 6788 fps=366 q=-0.0 size=N/A time=00:04:43.11 bitrate=N/A speed=15.2x    frame= 6990 fps=366 q=-0.0 size=N/A time=00:04:51.54 bitrate=N/A speed=15.3x    frame= 7192 fps=367 q=-0.0 size=N/A time=00:04:59.96 bitrate=N/A speed=15.3x    frame= 7381 fps=367 q=-0.0 size=N/A time=00:05:07.84 bitrate=N/A speed=15.3x    frame= 7571 fps=367 q=-0.0 size=N/A time=00:05:15.77 bitrate=N/A speed=15.3x    frame= 7766 fps=367 q=-0.0 size=N/A time=00:05:23.90 bitrate=N/A speed=15.3x    frame= 7965 fps=367 q=-0.0 size=N/A time=00:05:32.20 bitrate=N/A speed=15.3x    frame= 8165 fps=368 q=-0.0 size=N/A time=00:05:40.54 bitrate=N/A speed=15.3x    frame= 8362 fps=368 q=-0.0 size=N/A time=00:05:48.76 bitrate=N/A speed=15.4x    frame= 8568 fps=369 q=-0.0 size=N/A time=00:05:57.35 bitrate=N/A speed=15.4x    frame= 8765 fps=369 q=-0.0 size=N/A time=00:06:05.57 bitrate=N/A speed=15.4x    frame= 8970 fps=370 q=-0.0 size=N/A time=00:06:14.12 bitrate=N/A speed=15.4x    frame= 9175 fps=370 q=-0.0 size=N/A time=00:06:22.67 bitrate=N/A speed=15.5x    frame= 9378 fps=371 q=-0.0 size=N/A time=00:06:31.14 bitrate=N/A speed=15.5x    frame= 9589 fps=372 q=-0.0 size=N/A time=00:06:39.94 bitrate=N/A speed=15.5x    frame= 9786 fps=372 q=-0.0 size=N/A time=00:06:48.15 bitrate=N/A speed=15.5x    frame= 9984 fps=372 q=-0.0 size=N/A time=00:06:56.41 bitrate=N/A speed=15.5x    frame=10191 fps=373 q=-0.0 size=N/A time=00:07:05.04 bitrate=N/A speed=15.5x    frame=10390 fps=373 q=-0.0 size=N/A time=00:07:13.34 bitrate=N/A speed=15.6x    frame=10584 fps=373 q=-0.0 size=N/A time=00:07:21.44 bitrate=N/A speed=15.6x    frame=10790 fps=373 q=-0.0 size=N/A time=00:07:30.03 bitrate=N/A speed=15.6x    frame=10987 fps=374 q=-0.0 size=N/A time=00:07:38.24 bitrate=N/A speed=15.6x    frame=11177 fps=373 q=-0.0 size=N/A time=00:07:46.17 bitrate=N/A speed=15.6x    frame=11377 fps=374 q=-0.0 size=N/A time=00:07:54.51 bitrate=N/A speed=15.6x    frame=11583 fps=374 q=-0.0 size=N/A time=00:08:03.10 bitrate=N/A speed=15.6x    frame=11781 fps=374 q=-0.0 size=N/A time=00:08:11.36 bitrate=N/A speed=15.6x    frame=11983 fps=375 q=-0.0 size=N/A time=00:08:19.79 bitrate=N/A speed=15.6x    frame=12196 fps=375 q=-0.0 size=N/A time=00:08:28.67 bitrate=N/A speed=15.7x    frame=12405 fps=376 q=-0.0 size=N/A time=00:08:37.39 bitrate=N/A speed=15.7x    frame=12608 fps=376 q=-0.0 size=N/A time=00:08:45.85 bitrate=N/A speed=15.7x    frame=12799 fps=376 q=-0.0 size=N/A time=00:08:53.82 bitrate=N/A speed=15.7x    frame=13003 fps=376 q=-0.0 size=N/A time=00:09:02.33 bitrate=N/A speed=15.7x    frame=13199 fps=376 q=-0.0 size=N/A time=00:09:10.50 bitrate=N/A speed=15.7x    frame=13394 fps=376 q=-0.0 size=N/A time=00:09:18.64 bitrate=N/A speed=15.7x    frame=13606 fps=377 q=-0.0 size=N/A time=00:09:27.48 bitrate=N/A speed=15.7x    frame=13813 fps=377 q=-0.0 size=N/A time=00:09:36.11 bitrate=N/A speed=15.7x    frame=14012 fps=377 q=-0.0 size=N/A time=00:09:44.41 bitrate=N/A speed=15.7x    frame=14199 fps=377 q=-0.0 size=N/A time=00:09:52.21 bitrate=N/A speed=15.7x    frame=14409 fps=377 q=-0.0 size=N/A time=00:10:00.97 bitrate=N/A speed=15.7x    frame=14599 fps=377 q=-0.0 size=N/A time=00:10:08.89 bitrate=N/A speed=15.7x    frame=14802 fps=378 q=-0.0 size=N/A time=00:10:17.36 bitrate=N/A speed=15.7x    frame=14996 fps=378 q=-0.0 size=N/A time=00:10:25.45 bitrate=N/A speed=15.7x    frame=15165 fps=377 q=-0.0 size=N/A time=00:10:32.50 bitrate=N/A speed=15.7x    frame=15357 fps=377 q=-0.0 size=N/A time=00:10:40.51 bitrate=N/A speed=15.7x    frame=15558 fps=377 q=-0.0 size=N/A time=00:10:48.89 bitrate=N/A speed=15.7x    frame=15755 fps=377 q=-0.0 size=N/A time=00:10:57.11 bitrate=N/A speed=15.7x    frame=15965 fps=377 q=-0.0 size=N/A time=00:11:05.87 bitrate=N/A speed=15.7x    frame=16168 fps=378 q=-0.0 size=N/A time=00:11:14.34 bitrate=N/A speed=15.7x    frame=16357 fps=378 q=-0.0 size=N/A time=00:11:22.22 bitrate=N/A speed=15.7x    frame=16561 fps=378 q=-0.0 size=N/A time=00:11:30.73 bitrate=N/A speed=15.8x    frame=16756 fps=378 q=-0.0 size=N/A time=00:11:38.86 bitrate=N/A speed=15.8x    frame=16956 fps=378 q=-0.0 size=N/A time=00:11:47.20 bitrate=N/A speed=15.8x    frame=17167 fps=378 q=-0.0 size=N/A time=00:11:56.00 bitrate=N/A speed=15.8x    frame=17378 fps=378 q=-0.0 size=N/A time=00:12:04.80 bitrate=N/A speed=15.8x    frame=17575 fps=379 q=-0.0 size=N/A time=00:12:13.02 bitrate=N/A speed=15.8x    frame=17773 fps=379 q=-0.0 size=N/A time=00:12:21.28 bitrate=N/A speed=15.8x    frame=17984 fps=379 q=-0.0 size=N/A time=00:12:30.08 bitrate=N/A speed=15.8x    frame=18186 fps=379 q=-0.0 size=N/A time=00:12:38.50 bitrate=N/A speed=15.8x    frame=18377 fps=379 q=-0.0 size=N/A time=00:12:46.47 bitrate=N/A speed=15.8x    frame=18591 fps=379 q=-0.0 size=N/A time=00:12:55.39 bitrate=N/A speed=15.8x    frame=18784 fps=379 q=-0.0 size=N/A time=00:13:03.44 bitrate=N/A speed=15.8x    frame=18992 fps=380 q=-0.0 size=N/A time=00:13:12.12 bitrate=N/A speed=15.8x    frame=19194 fps=380 q=-0.0 size=N/A time=00:13:20.54 bitrate=N/A speed=15.8x    frame=19404 fps=380 q=-0.0 size=N/A time=00:13:29.30 bitrate=N/A speed=15.8x    frame=19609 fps=380 q=-0.0 size=N/A time=00:13:37.85 bitrate=N/A speed=15.9x    frame=19814 fps=380 q=-0.0 size=N/A time=00:13:46.40 bitrate=N/A speed=15.9x    frame=20017 fps=380 q=-0.0 size=N/A time=00:13:54.87 bitrate=N/A speed=15.9x    frame=20224 fps=381 q=-0.0 size=N/A time=00:14:03.50 bitrate=N/A speed=15.9x    frame=20428 fps=381 q=-0.0 size=N/A time=00:14:12.01 bitrate=N/A speed=15.9x    frame=20620 fps=381 q=-0.0 size=N/A time=00:14:20.02 bitrate=N/A speed=15.9x    frame=20814 fps=381 q=-0.0 size=N/A time=00:14:28.11 bitrate=N/A speed=15.9x    frame=21025 fps=381 q=-0.0 size=N/A time=00:14:36.91 bitrate=N/A speed=15.9x    frame=21228 fps=381 q=-0.0 size=N/A time=00:14:45.38 bitrate=N/A speed=15.9x    frame=21429 fps=381 q=-0.0 size=N/A time=00:14:53.76 bitrate=N/A speed=15.9x    frame=21645 fps=381 q=-0.0 size=N/A time=00:15:02.77 bitrate=N/A speed=15.9x    frame=21852 fps=381 q=-0.0 size=N/A time=00:15:11.41 bitrate=N/A speed=15.9x    frame=22056 fps=382 q=-0.0 size=N/A time=00:15:19.91 bitrate=N/A speed=15.9x    frame=22263 fps=382 q=-0.0 size=N/A time=00:15:28.55 bitrate=N/A speed=15.9x    frame=22476 fps=382 q=-0.0 size=N/A time=00:15:37.43 bitrate=N/A speed=15.9x    frame=22663 fps=382 q=-0.0 size=N/A time=00:15:45.23 bitrate=N/A speed=15.9x    frame=22845 fps=382 q=-0.0 size=N/A time=00:15:52.78 bitrate=N/A speed=15.9x    frame=23043 fps=382 q=-0.0 size=N/A time=00:16:01.08 bitrate=N/A speed=15.9x    frame=23219 fps=381 q=-0.0 size=N/A time=00:16:08.42 bitrate=N/A speed=15.9x    frame=23414 fps=381 q=-0.0 size=N/A time=00:16:16.55 bitrate=N/A speed=15.9x    frame=23617 fps=381 q=-0.0 size=N/A time=00:16:25.02 bitrate=N/A speed=15.9x    frame=23803 fps=381 q=-0.0 size=N/A time=00:16:32.78 bitrate=N/A speed=15.9x    frame=24001 fps=381 q=-0.0 size=N/A time=00:16:41.04 bitrate=N/A speed=15.9x    frame=24194 fps=381 q=-0.0 size=N/A time=00:16:49.09 bitrate=N/A speed=15.9x    frame=24392 fps=381 q=-0.0 size=N/A time=00:16:57.34 bitrate=N/A speed=15.9x    frame=24587 fps=381 q=-0.0 size=N/A time=00:17:05.48 bitrate=N/A speed=15.9x    frame=24787 fps=381 q=-0.0 size=N/A time=00:17:13.82 bitrate=N/A speed=15.9x    frame=24988 fps=381 q=-0.0 size=N/A time=00:17:22.20 bitrate=N/A speed=15.9x    frame=25190 fps=381 q=-0.0 size=N/A time=00:17:30.63 bitrate=N/A speed=15.9x    frame=25383 fps=381 q=-0.0 size=N/A time=00:17:38.68 bitrate=N/A speed=15.9x    frame=25578 fps=381 q=-0.0 size=N/A time=00:17:46.81 bitrate=N/A speed=15.9x    frame=25758 fps=381 q=-0.0 size=N/A time=00:17:54.32 bitrate=N/A speed=15.9x    frame=25939 fps=381 q=-0.0 size=N/A time=00:18:01.87 bitrate=N/A speed=15.9x    frame=26129 fps=381 q=-0.0 size=N/A time=00:18:09.79 bitrate=N/A speed=15.9x    frame=26309 fps=380 q=-0.0 size=N/A time=00:18:17.30 bitrate=N/A speed=15.9x    frame=26509 fps=380 q=-0.0 size=N/A time=00:18:25.64 bitrate=N/A speed=15.9x    frame=26705 fps=380 q=-0.0 size=N/A time=00:18:33.82 bitrate=N/A speed=15.9x    frame=26892 fps=380 q=-0.0 size=N/A time=00:18:41.62 bitrate=N/A speed=15.9x    frame=27068 fps=380 q=-0.0 size=N/A time=00:18:48.96 bitrate=N/A speed=15.9x    frame=27249 fps=380 q=-0.0 size=N/A time=00:18:56.51 bitrate=N/A speed=15.8x    frame=27433 fps=380 q=-0.0 size=N/A time=00:19:04.18 bitrate=N/A speed=15.8x    frame=27623 fps=380 q=-0.0 size=N/A time=00:19:12.10 bitrate=N/A speed=15.8x    frame=27821 fps=380 q=-0.0 size=N/A time=00:19:20.36 bitrate=N/A speed=15.8x    frame=28003 fps=379 q=-0.0 size=N/A time=00:19:27.95 bitrate=N/A speed=15.8x    frame=28189 fps=379 q=-0.0 size=N/A time=00:19:35.71 bitrate=N/A speed=15.8x    frame=28377 fps=379 q=-0.0 size=N/A time=00:19:43.55 bitrate=N/A speed=15.8x    frame=28576 fps=379 q=-0.0 size=N/A time=00:19:51.85 bitrate=N/A speed=15.8x    frame=28761 fps=379 q=-0.0 size=N/A time=00:19:59.57 bitrate=N/A speed=15.8x    frame=28948 fps=379 q=-0.0 size=N/A time=00:20:07.37 bitrate=N/A speed=15.8x    frame=29113 fps=379 q=-0.0 size=N/A time=00:20:14.25 bitrate=N/A speed=15.8x    frame=29300 fps=379 q=-0.0 size=N/A time=00:20:22.05 bitrate=N/A speed=15.8x    frame=29470 fps=378 q=-0.0 size=N/A time=00:20:29.14 bitrate=N/A speed=15.8x    frame=29636 fps=378 q=-0.0 size=N/A time=00:20:36.06 bitrate=N/A speed=15.8x    frame=29803 fps=377 q=-0.0 size=N/A time=00:20:43.03 bitrate=N/A speed=15.7x    frame=29972 fps=377 q=-0.0 size=N/A time=00:20:50.08 bitrate=N/A speed=15.7x    frame=30142 fps=377 q=-0.0 size=N/A time=00:20:57.17 bitrate=N/A speed=15.7x    frame=30329 fps=377 q=-0.0 size=N/A time=00:21:04.97 bitrate=N/A speed=15.7x    frame=30517 fps=377 q=-0.0 size=N/A time=00:21:12.81 bitrate=N/A speed=15.7x    frame=30707 fps=377 q=-0.0 size=N/A time=00:21:20.73 bitrate=N/A speed=15.7x    frame=30902 fps=377 q=-0.0 size=N/A time=00:21:28.87 bitrate=N/A speed=15.7x    frame=31108 fps=377 q=-0.0 size=N/A time=00:21:37.46 bitrate=N/A speed=15.7x    frame=31304 fps=377 q=-0.0 size=N/A time=00:21:45.63 bitrate=N/A speed=15.7x    frame=31498 fps=377 q=-0.0 size=N/A time=00:21:53.72 bitrate=N/A speed=15.7x    frame=31701 fps=377 q=-0.0 size=N/A time=00:22:02.19 bitrate=N/A speed=15.7x    frame=31885 fps=377 q=-0.0 size=N/A time=00:22:09.87 bitrate=N/A speed=15.7x    frame=32066 fps=377 q=-0.0 size=N/A time=00:22:17.41 bitrate=N/A speed=15.7x    frame=32270 fps=377 q=-0.0 size=N/A time=00:22:25.92 bitrate=N/A speed=15.7x    frame=32464 fps=377 q=-0.0 size=N/A time=00:22:34.01 bitrate=N/A speed=15.7x    frame=32645 fps=377 q=-0.0 size=N/A time=00:22:41.56 bitrate=N/A speed=15.7x    frame=32784 fps=376 q=-0.0 size=N/A time=00:22:47.36 bitrate=N/A speed=15.7x    frame=32963 fps=376 q=-0.0 size=N/A time=00:22:54.83 bitrate=N/A speed=15.7x    frame=33139 fps=376 q=-0.0 size=N/A time=00:23:02.17 bitrate=N/A speed=15.7x    frame=33322 fps=375 q=-0.0 size=N/A time=00:23:09.80 bitrate=N/A speed=15.7x    frame=33498 fps=375 q=-0.0 size=N/A time=00:23:17.14 bitrate=N/A speed=15.7x    frame=33652 fps=375 q=-0.0 size=N/A time=00:23:23.56 bitrate=N/A speed=15.6x    frame=33795 fps=374 q=-0.0 size=N/A time=00:23:29.53 bitrate=N/A speed=15.6x    frame=33934 fps=374 q=-0.0 size=N/A time=00:23:35.33 bitrate=N/A speed=15.6x    frame=34107 fps=373 q=-0.0 size=N/A time=00:23:42.54 bitrate=N/A speed=15.6x    frame=34267 fps=373 q=-0.0 size=N/A time=00:23:49.21 bitrate=N/A speed=15.6x    frame=34404 fps=372 q=-0.0 size=N/A time=00:23:54.93 bitrate=N/A speed=15.5x    frame=34578 fps=372 q=-0.0 size=N/A time=00:24:02.19 bitrate=N/A speed=15.5x    [Parsed_psnr_16 @ 0000027208fbcec0] PSNR y:48.493484 u:50.245796 v:50.324661 average:49.012652 min:36.913217 max:inf
[out#0/null @ 000002727b9f8a00] video:14903KiB audio:271276KiB subtitle:0KiB other streams:0KiB global headers:0KiB muxing overhead: unknown
frame=34683 fps=372 q=-0.0 Lsize=N/A time=00:24:06.57 bitrate=N/A speed=15.5x    
